<mxfile host="app.diagrams.net" agent="Mozilla/5.0 (Windows NT 10.0; Win64; x64) AppleWebKit/537.36 (KHTML, like Gecko) Chrome/130.0.0.0 Safari/537.36" version="24.8.2">
  <diagram name="Page-1" id="hxcjmrxum8Zaq5pmRYpN">
    <mxGraphModel dx="1134" dy="600" grid="1" gridSize="10" guides="1" tooltips="1" connect="1" arrows="1" fold="1" page="1" pageScale="1" pageWidth="850" pageHeight="1100" background="#ffffff" math="0" shadow="0">
      <root>
        <object label="" id="0">
          <mxCell />
        </object>
        <mxCell id="1" parent="0" />
        <mxCell id="O29mPSPpTy2A8e6XbzIK-7" value="&lt;span style=&quot;font-weight: 400;&quot;&gt;Product&lt;/span&gt;" style="swimlane;fontStyle=1;align=center;verticalAlign=top;childLayout=stackLayout;horizontal=1;startSize=26;horizontalStack=0;resizeParent=1;resizeParentMax=0;resizeLast=0;collapsible=1;marginBottom=0;whiteSpace=wrap;html=1;fillColor=#B85450;strokeColor=#b85450;" vertex="1" parent="1">
          <mxGeometry x="10" y="260" width="380" height="170" as="geometry" />
        </mxCell>
        <mxCell id="O29mPSPpTy2A8e6XbzIK-8" value="+ Name : string&lt;div&gt;+ Price : decimal&lt;/div&gt;&lt;div&gt;+ Category : string&lt;/div&gt;" style="text;strokeColor=#b85450;fillColor=#f8cecc;align=left;verticalAlign=top;spacingLeft=4;spacingRight=4;overflow=hidden;rotatable=0;points=[[0,0.5],[1,0.5]];portConstraint=eastwest;whiteSpace=wrap;html=1;" vertex="1" parent="O29mPSPpTy2A8e6XbzIK-7">
          <mxGeometry y="26" width="380" height="64" as="geometry" />
        </mxCell>
        <mxCell id="O29mPSPpTy2A8e6XbzIK-10" value="+ Product(Name:string,Price:decimal,Category:string) (constructor)&lt;div&gt;+ ToString() : string&lt;/div&gt;&lt;div&gt;&lt;br&gt;&lt;/div&gt;" style="text;strokeColor=#b85450;fillColor=#f8cecc;align=left;verticalAlign=top;spacingLeft=4;spacingRight=4;overflow=hidden;rotatable=0;points=[[0,0.5],[1,0.5]];portConstraint=eastwest;whiteSpace=wrap;html=1;" vertex="1" parent="O29mPSPpTy2A8e6XbzIK-7">
          <mxGeometry y="90" width="380" height="80" as="geometry" />
        </mxCell>
        <mxCell id="O29mPSPpTy2A8e6XbzIK-9" value="" style="line;strokeWidth=1;fillColor=none;align=left;verticalAlign=middle;spacingTop=-1;spacingLeft=3;spacingRight=3;rotatable=0;labelPosition=right;points=[];portConstraint=eastwest;strokeColor=inherit;" vertex="1" parent="O29mPSPpTy2A8e6XbzIK-7">
          <mxGeometry y="170" width="380" as="geometry" />
        </mxCell>
        <mxCell id="O29mPSPpTy2A8e6XbzIK-11" value="Cart" style="swimlane;fontStyle=1;align=center;verticalAlign=top;childLayout=stackLayout;horizontal=1;startSize=26;horizontalStack=0;resizeParent=1;resizeParentMax=0;resizeLast=0;collapsible=1;marginBottom=0;whiteSpace=wrap;html=1;fillColor=#B85450;strokeColor=#b85450;" vertex="1" parent="1">
          <mxGeometry x="460" y="270" width="320" height="420" as="geometry" />
        </mxCell>
        <mxCell id="O29mPSPpTy2A8e6XbzIK-12" value="-items : Link&amp;lt;Product&amp;gt;&lt;div&gt;-_allProducts : List&amp;lt;Product&amp;gt;&lt;/div&gt;&lt;div&gt;-discount : decimal&lt;/div&gt;&lt;div&gt;-salesTaxRate : decimal&lt;/div&gt;&lt;div&gt;-_createdAt : DateTime&lt;/div&gt;&lt;div&gt;-_expiryDuration : TimeSpan&lt;/div&gt;&lt;div&gt;-input : string&amp;nbsp;&lt;/div&gt;" style="text;strokeColor=#b85450;fillColor=#f8cecc;align=left;verticalAlign=top;spacingLeft=4;spacingRight=4;overflow=hidden;rotatable=0;points=[[0,0.5],[1,0.5]];portConstraint=eastwest;whiteSpace=wrap;html=1;" vertex="1" parent="O29mPSPpTy2A8e6XbzIK-11">
          <mxGeometry y="26" width="320" height="134" as="geometry" />
        </mxCell>
        <mxCell id="O29mPSPpTy2A8e6XbzIK-14" value="&lt;span style=&quot;background-color: rgb(248, 206, 204);&quot;&gt;+ Cart(List&amp;lt;Product&amp;gt; allProducts, TimeSpan expiryDuration)&lt;/span&gt;&lt;div&gt;&lt;span style=&quot;background-color: rgb(248, 206, 204);&quot;&gt;+ IsExpired : bool&lt;/span&gt;&lt;/div&gt;&lt;div&gt;&lt;span style=&quot;background-color: rgb(248, 206, 204);&quot;&gt;+ ResetCartTimer() : void&lt;/span&gt;&lt;/div&gt;&lt;div&gt;&lt;span style=&quot;background-color: rgb(248, 206, 204);&quot;&gt;+ GetRemainingTime() :TimeSpan&lt;/span&gt;&lt;/div&gt;&lt;div&gt;&lt;span style=&quot;background-color: rgb(248, 206, 204);&quot;&gt;+ AddProduct&lt;span style=&quot;color: rgb(34, 34, 34); font-family: Arial, Helvetica, sans-serif; font-size: small;&quot;&gt;(Product product) : void&lt;/span&gt;&lt;/span&gt;&lt;/div&gt;&lt;div&gt;&lt;span style=&quot;background-color: rgb(248, 206, 204);&quot;&gt;&lt;span style=&quot;color: rgb(34, 34, 34); font-family: Arial, Helvetica, sans-serif; font-size: small;&quot;&gt;+&amp;nbsp;&lt;/span&gt;&lt;span style=&quot;color: rgb(34, 34, 34); font-family: Arial, Helvetica, sans-serif; font-size: small;&quot;&gt;RemoveProductByIndexint index) : void&amp;nbsp; +ProductRecommendation(): void&amp;nbsp; +ViewCartWithIndices(): Void&lt;/span&gt;&lt;/span&gt;&lt;/div&gt;&lt;div&gt;&lt;span style=&quot;color: rgb(34, 34, 34); font-family: Arial, Helvetica, sans-serif; font-size: small; background-color: rgb(248, 206, 204);&quot;&gt;+ ItemsCount(): Int&lt;/span&gt;&lt;/div&gt;&lt;div&gt;&lt;span style=&quot;color: rgb(34, 34, 34); font-family: Arial, Helvetica, sans-serif; font-size: small; background-color: rgb(248, 206, 204);&quot;&gt;+CalculateTotal(): Decimal&amp;nbsp;&lt;/span&gt;&lt;/div&gt;&lt;div&gt;&lt;span style=&quot;color: rgb(34, 34, 34); font-family: Arial, Helvetica, sans-serif; font-size: small; background-color: rgb(248, 206, 204);&quot;&gt;+Checkout (): Void&amp;nbsp;&lt;/span&gt;&lt;/div&gt;&lt;div&gt;&lt;span style=&quot;color: rgb(34, 34, 34); font-family: Arial, Helvetica, sans-serif; font-size: small; background-color: rgb(248, 206, 204);&quot;&gt;+ ShowRecommendations (Product addedProduct)&amp;nbsp; +HandleCartExpiration()&lt;/span&gt;&lt;/div&gt;&lt;div&gt;&lt;span style=&quot;background-color: rgb(248, 206, 204);&quot;&gt;&lt;span style=&quot;color: rgb(34, 34, 34); font-family: Arial, Helvetica, sans-serif; font-size: small;&quot;&gt;+GetValidIndex(maxOption : int,&amp;nbsp;&lt;/span&gt;&lt;span style=&quot;color: rgb(34, 34, 34); font-family: Arial, Helvetica, sans-serif; font-size: small;&quot;&gt;prompt :&amp;nbsp;&lt;/span&gt;&lt;span style=&quot;color: rgb(34, 34, 34); font-family: Arial, Helvetica, sans-serif; font-size: small;&quot;&gt;string): Int&lt;/span&gt;&lt;/span&gt;&lt;/div&gt;" style="text;strokeColor=#b85450;fillColor=#f8cecc;align=left;verticalAlign=top;spacingLeft=4;spacingRight=4;overflow=hidden;rotatable=0;points=[[0,0.5],[1,0.5]];portConstraint=eastwest;whiteSpace=wrap;html=1;" vertex="1" parent="O29mPSPpTy2A8e6XbzIK-11">
          <mxGeometry y="160" width="320" height="260" as="geometry" />
        </mxCell>
        <mxCell id="O29mPSPpTy2A8e6XbzIK-21" value="Program" style="swimlane;fontStyle=1;align=center;verticalAlign=top;childLayout=stackLayout;horizontal=1;startSize=26;horizontalStack=0;resizeParent=1;resizeParentMax=0;resizeLast=0;collapsible=1;marginBottom=0;whiteSpace=wrap;html=1;fillColor=#B85450;strokeColor=#B85450;" vertex="1" parent="1">
          <mxGeometry x="30" y="460" width="360" height="250" as="geometry" />
        </mxCell>
        <mxCell id="O29mPSPpTy2A8e6XbzIK-22" value="&amp;nbsp; &amp;nbsp; &amp;nbsp;" style="text;strokeColor=#b85450;fillColor=#f8cecc;align=left;verticalAlign=top;spacingLeft=4;spacingRight=4;overflow=hidden;rotatable=0;points=[[0,0.5],[1,0.5]];portConstraint=eastwest;whiteSpace=wrap;html=1;" vertex="1" parent="O29mPSPpTy2A8e6XbzIK-21">
          <mxGeometry y="26" width="360" height="26" as="geometry" />
        </mxCell>
        <mxCell id="O29mPSPpTy2A8e6XbzIK-23" value="" style="line;strokeWidth=1;fillColor=none;align=left;verticalAlign=middle;spacingTop=-1;spacingLeft=3;spacingRight=3;rotatable=0;labelPosition=right;points=[];portConstraint=eastwest;strokeColor=inherit;" vertex="1" parent="O29mPSPpTy2A8e6XbzIK-21">
          <mxGeometry y="52" width="360" height="2" as="geometry" />
        </mxCell>
        <mxCell id="O29mPSPpTy2A8e6XbzIK-24" value="&lt;div&gt;&lt;span style=&quot;background-color: initial;&quot;&gt;+ DisplayWelcomeTitle(): Void&amp;nbsp;&lt;/span&gt;&lt;/div&gt;&lt;div&gt;+AddProductToCart(Cart cart): Void +ChooseMobilePhone(Cart cart): Void&amp;nbsp; +ChooseMobilePhoneAccessory(&lt;wbr&gt;Cart cart): Void&lt;/div&gt;&lt;div&gt;+ChooseChargingCablesAndAdapter&lt;wbr&gt;s (Cart cart): Void&amp;nbsp;&amp;nbsp;&lt;/div&gt;&lt;div&gt;+ChooseLaptop(Cart cart) : Void&amp;nbsp; +ChooseComputerAccessory(Cart cart) : Void&amp;nbsp; +ChooseSmartWatch(Cart cart) : Void&amp;nbsp; +DisplayAndAddProductCart cart, List&amp;lt;Product&amp;gt; products) :Void&amp;nbsp;&amp;nbsp;&lt;/div&gt;&lt;div&gt;+GetValidQuantity(string prompt)*: Int&amp;nbsp;&lt;/div&gt;&lt;div&gt;+GetValidInput(string prompt, string[] validOptions)* : String&amp;nbsp;&lt;/div&gt;&lt;div&gt;+GetValidIndex(&lt;span style=&quot;background-color: initial;&quot;&gt;maxIndex :&amp;nbsp;&lt;/span&gt;&lt;span style=&quot;background-color: initial;&quot;&gt;int, prompt :&amp;nbsp;&lt;/span&gt;&lt;span style=&quot;background-color: initial;&quot;&gt;string&lt;/span&gt;&lt;span style=&quot;background-color: initial;&quot;&gt;): Int&amp;nbsp; +PauseScreen(): void&amp;nbsp;&amp;nbsp;&lt;/span&gt;&lt;/div&gt;&lt;div&gt;&lt;span style=&quot;background-color: initial;&quot;&gt;+Header (): void&amp;nbsp;&lt;/span&gt;&lt;/div&gt;&lt;div class=&quot;yj6qo&quot;&gt;&lt;/div&gt;&lt;div class=&quot;adL&quot;&gt;&lt;br&gt;&lt;br style=&quot;color: rgb(34, 34, 34); font-family: Arial, Helvetica, sans-serif; font-size: small; background-color: rgb(255, 255, 255);&quot;&gt;&lt;/div&gt;" style="text;strokeColor=#b85450;fillColor=#f8cecc;align=left;verticalAlign=top;spacingLeft=4;spacingRight=4;overflow=hidden;rotatable=0;points=[[0,0.5],[1,0.5]];portConstraint=eastwest;whiteSpace=wrap;html=1;" vertex="1" parent="O29mPSPpTy2A8e6XbzIK-21">
          <mxGeometry y="54" width="360" height="196" as="geometry" />
        </mxCell>
      </root>
    </mxGraphModel>
  </diagram>
</mxfile>
